<svg id="Calque_1" data-name="Calque 1" xmlns="http://www.w3.org/2000/svg" viewBox="0 0 573.82749 260.28162"><defs><style>.cls-1{fill:#543a07;}.cls-2,.cls-5{fill:none;}.cls-2{stroke:#543a07;stroke-miterlimit:10;stroke-width:6px;}.cls-3{fill:#055f00;}.cls-4{fill:#fff;}</style></defs><title>benzai bouteille</title><path class="cls-1" d="M484.54628,421.25117s-16.97888-37.22852,0-76.18674c0,0-14.34874-1.70022-18.59983-.36557,0,0-16.34465,39.90556,0,75.71628C465.94645,420.41514,479.31208,432.3062,484.54628,421.25117Z" transform="translate(-21.30017 -248.26875)"/><path class="cls-2" d="M574.76794,353.59161c-10.43638.50147-20.09349.92517-29.74317,1.455-2.73429.15009-5.44423.63007-8.17012.92377-7.00235.75439-10.2465,3.41711-12.05622,9.3905a84.62674,84.62674,0,0,0-3.39,27.1236c.16567,5.77948,1.68293,11.53344,2.679,17.28729.513,2.96332,2.699,4.72577,5.85673,5.39685,9.30033,1.97638,18.60478,3.94873,27.95712,5.71631,4.2446.80224,8.606,1.11767,13.43423,1.71856A126.9063,126.9063,0,0,1,574.76794,353.59161Z" transform="translate(-21.30017 -248.26875)"/><path class="cls-2" d="M587.21183,355.65393c-8.89078,5.84656-11.97745,56.33258-3.41222,65.31378C592.14489,413.1665,595.80787,367.191,587.21183,355.65393Z" transform="translate(-21.30017 -248.26875)"/><path class="cls-1" d="M353.51714,495.70461a76.95492,76.95492,0,0,1-8.09909-5.9951,18.88962,18.88962,0,0,0-15.61324-5.14539c-3.77994.404-7.5751.63422-11.35993.98691a2.96935,2.96935,0,0,1-2.82808-1.454,71.1721,71.1721,0,0,0-7.39393-8.26105c-5.69095-5.18741-12.51577-8.30516-19.036-11.98044a74.95918,74.95918,0,0,1-10.2742-6.70521,16.62294,16.62294,0,0,0-9.3142-4.05247c-1.92466-.1427-3.86634.01185-5.80016-.00629a17.25843,17.25843,0,0,1-14.16139-6.87252,14.60372,14.60372,0,0,0-1.96376-2.041c-8.75325-7.55566-18.48666-11.76391-29.836-11.22987-10.12662.47652-20.27087.57871-30.40856.65286-3.74977.02736-7.48083-.67915-10.65594-3.154-3.22848-2.51651-3.39444-5.9933-.474-8.8028a24.98254,24.98254,0,0,1,2.92106-2.29786,79.54592,79.54592,0,0,1,23.00127-11.0542c16.1047-4.90881,32.389-9.10628,48.58769-13.64689a64.58564,64.58564,0,0,0,18.98863-8.3864c4.99927-3.37544,10.23875-4.13016,15.44768-1.42381a124.10614,124.10614,0,0,1,13.04307,8.42021c3.48927,2.41528,5.93146,4.20735,10.35684,4.77859,2.73337-.28556,6.73281,1.41421,7.15876-.57124.62421-2.90982-.39927-.257-.26034-4.14156.032-.89354-5.20089-1.75472-5.85712-2.285-4.49831-3.63488-7.39707-5.70752-12.10471-8.99718-5.882-3.42663-4.1-1.53522-6.50791-3.92736-.811-.80556-2.92876-2.47713-2.92854-3.67741.00006-.58556,1.86657-2.08853,2.01742-2.10651,4.097-.48865,5.553-.96253,9.47408-1.18815,2.78955-.1605,10.90943-1.471,13.69409-1.66808,1.18522-.08394,1.61309-4.02084.13017-3.42753-2.07674.831-.34281-2.01814-1.54242-1.7137-8.388,2.12887-21.52677,1.73471-29.70743,6.05684a.14054.14054,0,0,1-.20157-.13707l.21342-10.23988c0-.65472-1.06365-.1432-1.65949-.17848-2.23415-.13225-1.9241,2.99921-2.46685,5.571a12.14443,12.14443,0,0,1-5.362,7.839c-3.8037,2.562-7.53881,5.25168-11.401,7.701a11.73978,11.73978,0,0,1-4.64,1.77657c-5.19752.662-6.5878-1.08275-6.14409-6.82308.432-5.58966.73252-11.19538.94067-16.80082.15084-4.0632-.2682-8.17657.13494-12.199,1.05062-10.48257,6.12584-17.54065,15.51307-20.57211.34248-.11062,2.61545-1.441,2.94753-1.58882-1.00646-2.17674-4.27887-1.38129-6.27522-.70163-8.23965,2.80545-13.42341,8.64039-15.30745,17.92678-.1277.62944-.29663,1.24876-.44635,1.87281-2.87876-7.65162-4.89089-15.35156-5.08775-23.52419-.009-.37472-.05382-2.00033-.39544-2.00033l-1.31781-.21422c-.41461,0-.396,1.78686-.42264,2.10646-.75551,9.04791,1.65337,17.46184,3.46247,26.05065.03477.16505-.12551.21988-.252.1228-7.96162-6.10825-9.49189-6.70746-13.8838-10.464-.50466-.43163-2.44938-1.78443-3.00994-1.44595-1.64286.992-.80573,2.478-1.78966,4.17724-.2768.478,1.88387,2.21584,2.31028,2.53494,3.12887,2.34084,5.67359,5.65185,8.85117,8.18994,4.46477,3.56628,7.725,8.10836,8.454,14.319a54.58375,54.58375,0,0,1,.03831,6.307l-.51607.06989a16.47546,16.47546,0,0,0-6.744-8.6742c-5.9855-4.032-12.23184-6.51123-19.06874-2.678-3.60454,2.021-7.63847,3.96174-10.94274,6.5178a.1213.1213,0,0,1-.02989.017c-4.17875,1.63612-7.39291,4.09792-12.08493,3.45466-1.51994-.20837-5.94841-.4468-7.4624-.73039l-.0095-.0013c-5.77763-.52719-8.52982-.06764-13.87217-.37106-.84831-.33922-1.672-.19922-2.1368-.72186-2.93752-3.30342-4.96617-9.00605-6.2851-13.68436-.08253-.293-1.24247,1.33573-3.41663-.58017-.10488-.09247-.32123,1.03331-.29584,1.17831.83921,4.79522,7.1114,13.14313,4.32264,16.56611-.48.5891-2.07764.27123-3.24584.00893a27.33715,27.33715,0,0,0-5.47471-.31949,34.88076,34.88076,0,0,1-4.91466.12106,11.35415,11.35415,0,0,0-1.40213-.48438c-.45124,2.21157-2.0577,1.98275-3.75837,4.41825-.02854.041,3.53134,1.49467,3.57528,1.51292,1.8873.78545,4.09847,1.92118,5.40156,2.10646,3.75623.53416,4.21387,1.21393,8.8996,1.53523,5.26157.06522,9.793.44685,15.05672.4214l9.25033-.66236c4.73449-.723,7.40274-.90152,11.50032-2.69983,6.41432-3.33438,11.01808-6.25606,15.71285-8.57223,2.923-1.30225,6.34437-1.5718,9.55869-1.682,3.00579-.103,5.071,2.01461,6.06556,5.14337a11.07809,11.07809,0,0,1-1.05275,9.42218,16.17063,16.17063,0,0,1-13.02268,8.24077c-5.044.502-10.13359.49079-15.16617,1.083-10.592,1.24641-20.71323,4.71528-30.58541,8.90342-10.37336,4.40084-17.2111,15.41229-16.96363,27.61233.20079,9.89482,3.15056,18.10042,10.96448,23.13171,5.12494,3.29988,10.80055,4.49882,16.62588,5.05572,9.49179.90748,18.91385-.33134,28.357-1.0655,4.78393-.372,9.58707-.54607,14.38318-.58882,2.53567-.0227,5.612,2.44657,5.83073,4.23185.255,2.08033-1.61354,3.99466-4.70208,5.16516a12.44513,12.44513,0,0,0-4.57741,2.47623,17.81982,17.81982,0,0,1-10.28437,5.355c-4.16982.65719-8.29077,1.548-11.82936,4.33336a1.68449,1.68449,0,0,1-1.1041.39955c-3.31286-.38809-6.12219,1.128-8.90488,2.75708a7.58867,7.58867,0,0,1-6.77892.63916,23.95616,23.95616,0,0,0-11.2764-1.04641c-4.71572.51225-9.32684,1.44287-13.18436,4.94443-1.84522,1.67483-3.98281,3.046-6.55938,2.73843-5.613-.67006-9.24055,2.41629-11.35914,7.66246-.6473,1.60281-1.29208,2.64354-2.36994,3.1791v6.27218h204.2v-6.27218h10.42611A1.60476,1.60476,0,0,1,353.51714,495.70461Zm-83.66383-33.471a1.34714,1.34714,0,0,1,1.08607-.69331,5.75086,5.75086,0,0,1,2.33016.45612c2.494,1.19326,4.97961,2.42169,7.40061,3.78191q9.9369,5.5831,19.81183,11.29819c2.3341,1.34882,4.59326,2.85381,6.88662,4.28752q-.192.37558-.384.75129c-3.69118-3.23028-7.909-3.72078-12.37718-2.98758a.43256.43256,0,0,1-.26488-.057c-7.4823-4.91021-15.83982-8.14948-22.67593-14.29239a10.71517,10.71517,0,0,1-1.37376-1.26051A1.78161,1.78161,0,0,1,269.85331,462.23364Zm-19.41739-.04224a32.61672,32.61672,0,0,1,3.55943.02545,36.51706,36.51706,0,0,1,4.71663.82955c1.48168.36471,3.13954.56971,4.34589,1.45719,5.37764,3.95651,10.61128,8.14864,15.90245,12.24667a.15779.15779,0,0,1-.06354.27865c-1.743.24208-3.48078.53657-5.22707.74477-2.56365.30556-4.71555.44034-5.9451-3.17556-1.16916-3.43836-4.20651-5.36684-7.32881-6.7151-2.662-1.14961-5.3673-2.1809-8.01258-3.37359a11.95338,11.95338,0,0,1-2.151-1.633Q250.334,462.53392,250.43592,462.1914Zm-2.91516,2.3696a.13869.13869,0,0,1,.258-.03315c2.6355,4.59112,6.68426,6.20146,10.74588,7.82528,2.47056.98769,4.95944,1.99483,6.86921,4.54949a.16765.16765,0,0,1-.1091.26449c-2.89753.17826-5.43752.39652-8.02612.38348a.26432.26432,0,0,1-.21713-.15427c-1.79921-4.26112-4.39308-7.51285-8.415-9.17954C247.09081,467.58038,246.9993,466.36841,247.52076,464.561ZM230.455,481.15053c2.54516-2.69556,5.0823-5.40039,7.64516-8.07555a1.22832,1.22832,0,0,1,.89545-.3859c3.16027.38983,6.39156.50528,9.44459,1.37073,1.84742.52376,3.4468,2.1009,5.04168,3.67421a.16042.16042,0,0,1-.06017.2655c-7.63561,2.11079-14.96953,5.173-22.89407,3.42129A.16554.16554,0,0,1,230.455,481.15053Zm-21.52408-5.54421c4.74927-3.13095,9.319-5.7624,14.99021-3.92314,2.86573.92938,3.3541,1.92826,1.70741,4.75629-.3941.67691-.81651,1.334-1.0232,1.66444a.12921.12921,0,0,1-.13376.06095c-5.26027-.77-10.24864-1.50017-15.484-2.26651A.1631.1631,0,0,1,208.93091,475.60632Z" transform="translate(-21.30017 -248.26875)"/><path class="cls-3" d="M264.01882,319.26388c-5.19209,1.56706-9.89669.679-13.74193-3.92275a13.29965,13.29965,0,0,1-16.21,1.351c.24076,5.5625.74487,11.24687-5.657,13.86645-.04005.5371-.14349,1.39638-.16178,2.25784-.09747,4.591-3.31013,9.08895-7.51562,9.70639-9.76147,1.43318-18.04925-2.98332-18.5-15.8947a15.80221,15.80221,0,0,1,.07769-2.84829,2.81156,2.81156,0,0,0-1.28228-3.01744c-4.53337-3.52393-6.00472-11.0021-3.3155-16.35024,1.33429-2.65354,3.41531-4.03594,6.24035-3.88047.65319.036,1.30428.11757,1.91842.17465,3.3935-8.57913,4.92641-9.6052,13.554-8.876-1.71721-4.07667-2.057-8.105.122-11.94214,2.14941-3.78512,5.28288-5.88849,9.37065-6.03575.75532-6.914,2.7479-9.57117,8.98064-11.42643,9.75-2.90223,19.05128-1.34527,27.79817,4.03307,4.49872,2.76619,5.832,4.91967,8.83317,12.60717,2.78779-3.51179,6.2645-3.37915,9.91193-2.305a17.45927,17.45927,0,0,1,11.19573,9.3368,15.189,15.189,0,0,1,10.12122-.90143c5.04762,1.26251,7.88847,4.63288,8.4551,10.25223a2.75962,2.75962,0,0,0,1.73624,2.70069c7.69578,3.63793,8.85137,14.981,2.10233,19.73984a1.66251,1.66251,0,0,0-.62363,2.33951,8.33446,8.33446,0,0,1-.5057,6.56667c-2.43147,5.35087-7.63478,8.80922-11.94143,7.42564-2.21341-.71108-4.15665-2.43463-6.38934-3.80325a40.68483,40.68483,0,0,1-5.97293,2.19158c-5.573,1.18358-10.134-.824-13.35412-6.01214a2.42325,2.42325,0,0,0-2.60195-1.38563c-2.24524.19284-4.50429.21061-6.75828.243a1.48482,1.48482,0,0,1-1.01726-.48138C267.28666,323.14777,265.727,321.27836,264.01882,319.26388Z" transform="translate(-21.30017 -248.26875)"/><path class="cls-3" d="M110.5659,341.63536c-.76135-7.41655,1.00257-13.53992,7.48359-16.86264,5.8299-2.98887,11.72183-2.682,17.65756.6932.2636-6.40218,2.81676-11.22148,7.73508-14.26854,4.78317-2.96333,9.80976-3.5951,14.89783-.8693,5.46456-6.51006,15.07368-5.25,19.27966,2.41978.39634.72278,1.11223,1.585,1.78893,1.71907,8.48067,1.68045,11.84073,6.28335,11.978,15.24627a2.84972,2.84972,0,0,0,.135.53312c1.04795.20684,2.16312.34166,3.23482.65536,2.64763.775,4.15248,2.79736,4.42266,5.79458.63734,7.07037-5.36187,16.18888-11.67829,17.75039-3.08171.76184-5.43057.05929-9.05535-2.77509-6.47253,6.26656-12.66942,4.69935-18.86328-1.46017-1.40917,4.87553-4.3831,6.95552-9.29635,5.99541a17.65,17.65,0,0,1,2.43817,10.00675c-.03573,3.09316-1.69293,5.24835-3.03117,7.65458a29.04139,29.04139,0,0,0-2.88459,6.05893,17.0192,17.0192,0,0,1-14.88572,12.32706c-4.4906.35939-8.76409-.36734-12.53522-3.41168a2.16367,2.16367,0,0,0-2.01321.11651c-4.90115,2.89232-9.86122,3.3749-14.95743.69447-5.68844-2.99193-7.86032-8.63434-5.91406-16.053.6543-2.494,1.95133-4.7791,2.854-7.20474a2.83614,2.83614,0,0,0,.05284-2.08133c-6.65807-9.9815-.23343-20.6962,9.66556-22.397C109.52235,341.84034,109.96779,341.74883,110.5659,341.63536Z" transform="translate(-21.30017 -248.26875)"/><path class="cls-3" d="M320.82152,387.02458c-5.61706-3.43207-5.4768-8.02941-2.08591-13.51409-6.07126-.435-9.00467-3.76964-7.80689-10.49788-6.50919-.1387-7.80125-.99041-8.65425-5.63641-3.96563,2.144-7.79653,2.9005-11.09276-1.69289-.8881,3.28483-3.03856,4.002-5.78188,3.66285a2.35758,2.35758,0,0,0-1.739.57658,7.103,7.103,0,0,1-6.00249,1.719,4.89188,4.89188,0,0,1-3.2414-2.14915c-.65175-1.08606-1.08316-1.80636-2.33527-2.10534-1.85725-.44351-2.65586-2.16921-2.80113-4.10145a16.161,16.161,0,0,1,2.29135-9.79626c1.4187-2.32895,3.60817-3.08572,6.04538-3.26834a2.88871,2.88871,0,0,0,1.789-.56355c4.584-4.71963,8.712-4.101,11.77626,2.00271,1.81283-2.46414,4.24609-2.7153,6.83821-2.35306,2.84193.39718,4.53078,2.25141,5.38387,5.61312,1.67143-3.50115,4.25733-4.53544,7.29047-4.249,2.94589.27826,5.63554,1.26577,7.21917,4.68646.45191-.66684.83116-1.20687,1.1917-1.76157a7.06738,7.06738,0,0,1,11.63107-.674,2.10789,2.10789,0,0,0,1.46026.71594c4.26214-.03283,7.34245,2.345,9.81187,5.82859,1.72874,2.43874,1.29674,5.25169.70305,8.0046-.21152.98077-.49909,1.94182-.68158,2.642,2.47359,1.16149,4.922,1.97008,7.03808,3.37931a9.45916,9.45916,0,0,1,3.88741,11.471,2.73194,2.73194,0,0,0,.16947,1.81321c3.52137,8.09446.66242,14.48905-7.457,16.60744-.04522.01178-.07434.09792-.17306.23653,3.45023,2.81256,4.39244,6.80276,3.87792,11.19984-.53291,4.55426-2.74681,7.84754-7.07281,9.17727,1.05752,2.89466.78066,5.38314-1.39112,7.41786-2.55155,2.39055-5.45484,3.165-8.56024,1.802a50.58992,50.58992,0,0,1-5.75907-3.461c-3.55384,4.463-6.91959,5.44639-11.32238,3.22491a11.73409,11.73409,0,0,1-6.30527-12.66425,10.53339,10.53339,0,0,1,2.42884-5.1024c1.87251-2.00541,2.36329-4.34925,2.6715-6.94536.255-2.14845.56157-4.29647.99-6.40935a3.42953,3.42953,0,0,1,1.14367-1.93415C317.65905,388.85861,319.24478,387.99422,320.82152,387.02458Z" transform="translate(-21.30017 -248.26875)"/><path class="cls-3" d="M95.51061,254.17027c-32.82976,14.851-74.21044,77.70651-74.21044,123.42043,0,45.02293,30.23174,95.6859,72.09873,121.76037a14.28505,14.28505,0,0,0,5.35471,2.25815l.0754.01131c6.31146.94844,12.62735,1.8708,18.97069,2.57516,9.17372,1.01865,18.36636,1.86465,27.58043,2.403,11.85553.69269,23.71978,1.43311,35.5896,1.64991,17.97137.32818,35.95044.2893,53.92633.29864,13.37884.007,26.76233.02893,40.13543-.29657,13.15424-.32019,26.31281-.84424,39.44178-1.70312,10.33307-.67591,20.65692-1.74591,30.92547-3.0932A75.20634,75.20634,0,0,0,382.998,487.613a206.63824,206.63824,0,0,0,22.17193-19.75287c8.23084-8.76776,15.64575-18.3313,23.05091-27.83332,4.39807-5.64337,10.42639-7.921,16.85711-9.2229a103.44951,103.44951,0,0,1,31.0387-1.55835c5.267.531,10.5899.48487,15.8797.8216a54.4191,54.4191,0,0,1,8.49676,1.03143,7.54217,7.54217,0,0,1,3.858,2.43024c5.88446,7.12988,16.1811,7.83191,22.64405,1.33771a48.3394,48.3394,0,0,0,5.83624-6.50617c.11444-.16711.2312-.32025.34949-.4646l7.27759-10.00256q-5.747-1.342-11.48438-2.72467a6.31852,6.31852,0,0,1-5.19617-5.39685c-.88372-5.75385-2.22979-11.50775-2.37677-17.28729a94.78617,94.78617,0,0,1,3.00763-27.12354c1.60559-5.97339,4.48383-8.63611,10.69635-9.39056,2.7387-.33252,5.45915-.904,8.21347-.96468l.00976-.01794L533.30676,338.8172c-3.28277-4.1416-7.64618-6.8739-13.88263-6.43506-2.05182.14441-4.47906.55927-5.98657,1.77564-4.44787,3.58886-9.72143,3.60131-14.79864,3.7395-11.7768.32049-23.57727.40741-35.34986.02466a56.541,56.541,0,0,1-22.714-5.053,17.8301,17.8301,0,0,1-6.3836-5.17584c-5.71305-7.36851-11.37134-14.80427-16.58841-22.52667a133.80916,133.80916,0,0,0-28.28729-29.86889c-10.10028-7.994-21.298-14.29749-34.31055-16.36335-9.29938-1.47631-18.62445-2.88378-27.98682-3.84832-14.4281-1.48639-28.89428-2.6128-43.35235-3.794-4.75421-.38843-9.5315-.52338-14.30121-.688-19.61579-.67718-39.23151-1.36151-58.85-1.95166-5.545-.16675-11.09985.029-16.64917-.03473-5.93493-.06817-11.86847-.33691-17.80285-.34839-4.858-.0094-9.717.21186-14.57453.36335-13.8258.43139-27.66345.65423-41.47162,1.41094a124.26721,124.26721,0,0,0-20.48316,2.51619M496.527,422.0285c-3.66962-.18109-7.3736-.20324-11.04236-.57415a156.949,156.949,0,0,0-37.22687.38018c-11.39648,1.56079-20.754,6.14777-27.91113,15.79792-10.80628,14.57037-22.33624,28.60418-36.70044,40.005-11.18225,8.87531-23.37384,15.69849-37.68933,17.37476-14.647,1.71515-29.37323,3.06872-44.10242,3.69214-22.05713.93359-44.1452,1.30517-66.22388,1.50775-16.45111.15088-32.90838-.32862-49.36261-.55493a586.78456,586.78456,0,0,1-70.26025-4.71442c-2.64381-.35575-5.27832-.79273-7.90505-1.28532a43.64338,43.64338,0,0,1-21.694-10.943c-33.65-31.3129-52.76969-66.90657-52.76969-105.12371,0-40.51773,21.491-78.39513,59.0038-111.05694a17.76112,17.76112,0,0,1,8.79889-4.248l.0604-.0096c7.95331-1.25451,15.96216-2.41864,23.99-2.88513,16.74311-.9729,33.5102-1.60119,50.2757-2.08948,7.835-.22814,15.68884.21027,23.53442.326,14.76178.21784,29.533.16706,44.28333.69684,16.738.60114,33.46283,1.62763,50.1831,2.63953q16.20447.98071,32.37562,2.48523c6.339.58893,12.61517,1.8363,18.95043,2.48773,10.80939,1.11145,21.00159,4.04114,30.30585,9.7226,17.32727,10.5805,29.83008,25.98486,41.67938,42.003,3.96338,5.35772,7.35621,11.16473,11.58466,16.29242,5.404,6.55328,13.242,9.01641,21.23773,10.57995,14.81452,2.897,29.79663,2.90058,44.80164,2.0072,1.87567-.11169,3.75421-.17645,5.79937-.27069C492.466,371.252,492.49182,396.2699,496.527,422.0285Zm23.42505-67.549c-1.97577,2.61963-3.10535,6.06525-3.95124,9.31665a107.14925,107.14925,0,0,0-1.87591,42.90534c1.08063,7.35943,2.99975,14.55847,11.40063,17.286.243.07892.386.46588.55976.68872-3.44458,7.36462-12.21436,9.62573-17.8465,1.0133a29.98971,29.98971,0,0,1-3.7735-10.39142c-2.93652-14.61254-2.44653-29.38861-.66125-44.042.87609-7.19055,3.021-14.31006,5.33264-21.21362,1.61181-4.81354,4.94964-8.89527,10.58868-9.40265,4.49487-.40442,7.51459,2.21875,9.21405,5.56116C525.64911,349.1463,522.26685,351.4104,519.952,354.47949Z" transform="translate(-21.30017 -248.26875)"/><path class="cls-4" d="M474.7373,358.59521l-.66406,3.02979-.75683-.3418-1.16407,5.35108-1.458-.647-1.66993-1.542-.15136.72705-3.29785-1.41064q-1.45752-.64746-.86133-3.332l.42676-1.9458,1.43164.61767q-.36621,1.59888.39257,1.9336l1.20313.52734.34863-1.51514,1.36524.59522-.17871.8164,1.627,1.58838.52148-2.38086-6.5625-2.86181.666-3.0376L472.5,357.6333l.166-.75537,1.45605.65478-.16016.73243Z" transform="translate(-21.30017 -248.26875)"/><path class="cls-4" d="M472.12109,367.377l-.957,8.55567-1.5332-.48438.43164-3.89795-1.51172-.47461-.4209,3.86817-1.51855-.4751.4375-3.88184-1.5332-.49218q-.75734-.25709-.875.59423l-.32227,3.0459-1.48242-.45556.51562-4.65088q.25342-2.354,1.75782-1.88037l2.28417.73291.16993-1.52979,1.51172.47461-.165,1.55371,1.541.49317.166-1.56153Z" transform="translate(-21.30017 -248.26875)"/><path class="cls-4" d="M471.97754,377.67969l-.02637,3.15625-4.76758,2.09277,3.92286.79883-.01075,3.17187-7.02734-1.46533q-1.59082-.38013-1.53906-2.68457l.00976-1.17187,4.9043-1.709-4.88965-1.041.01856-3.13282Z" transform="translate(-21.30017 -248.26875)"/><path class="cls-4" d="M471.291,388.481l.71093,7.78759-1.60742-.16894-5.90137-4.71387.374,4.13965-1.5918-.16211-.68945-7.80566,1.56933.17187,5.919,4.74414-.35938-4.15625Z" transform="translate(-21.30017 -248.26875)"/><path class="cls-4" d="M473.05566,397.60938l.56543,3.1123-.78125-.0166.54688,3.04492q.40282,2.26171-1.19141,2.22656l-7.16211-.127-.52539-2.9375,2.37989.03516-.30176-1.61231,1.61816.03125.29883,1.59766,3.17871.05664-.41992-2.35352-5.91211-.10742-.5625-3.08984Z" transform="translate(-21.30017 -248.26875)"/><path class="cls-4" d="M474.35352,407.86426l.77246,3.03613-8.74414.45313-.77344-3.03516Z" transform="translate(-21.30017 -248.26875)"/><path class="cls-5" d="M550.50671,381.68861a14.724,14.724,0,0,0-.3891,1.92713,1.23775,1.23775,0,0,1-.4234.86358c-.15118.13318-.38061.289-.39246.44818-.03753.5044-.40051.65894-.73883.903-.32049.2312-.83435.38116-.70575.88989.00483.363.01935.59564.38031.73334a1.38809,1.38809,0,0,1,.70563.62121c.14215.29352.25263.31934.537.26453.24622-.04742.571-.09332.68048.26422.3183,1.03967.65192,2.07562.93109,3.12592.22547.84832.23334.87188.98688.41211.3147-.192.62231-.50183.95508-.53443a2.8554,2.8554,0,0,0,1.47625-.6737,6.14767,6.14767,0,0,0,1.21259-1.41767,8.81638,8.81638,0,0,0,1.61383-3.26166,2.49139,2.49139,0,0,0-.13879-1.37213,5.1639,5.1639,0,0,0-2.30725-2.50476,2.60955,2.60955,0,0,0-1.1059-.3858,1.36486,1.36486,0,0,1-1.00842-.39154c-.11646-.14154-.41687-.14783-.6388-.1825-.29864-.04663-.61224-.02313-.90143-.09863C550.82,381.21034,550.61255,381.26686,550.50671,381.68861Z" transform="translate(-21.30017 -248.26875)"/><path class="cls-5" d="M548.24688,391.69343a3.35987,3.35987,0,0,0-.1878-.5238l-.42182,1.40741c.48414.13489.59467.059.60047-.422A2.59657,2.59657,0,0,0,548.24688,391.69343Z" transform="translate(-21.30017 -248.26875)"/><path class="cls-5" d="M545.15539,388.97114a3.20592,3.20592,0,0,0-.14367,1.64167l.1156.01452a.65167.65167,0,0,0,.05944-.1972,1.74089,1.74089,0,0,1,.50617-1.28565,1.73528,1.73528,0,0,0,.22558-.52392c-.20587.05731-.41522.105-.61553.17755A.32233.32233,0,0,0,545.15539,388.97114Z" transform="translate(-21.30017 -248.26875)"/><path class="cls-5" d="M540.66327,380.784a1.041,1.041,0,0,1-.11957.27759.64646.64646,0,0,0,.25915,1.06884,1.83369,1.83369,0,0,1,.39545.35645c.24878.25482.47784.53058.74152.76825a.5099.5099,0,0,0,.41052.13275c.09173-.03223.11963-.2464.17578-.38l-.09979-.04456a1.34866,1.34866,0,0,1,.2232-.44067c.05469-.04981.27179.02423.3739.09887.07587.05542.06812.21326.12867.30512.05749.08722.1701.21765.23193.20447a.40234.40234,0,0,0,.25763-.22754.63148.63148,0,0,0-.69666-.86377c-.43743.03821-.55633-.06354-.61-.5011a.838.838,0,0,0-.09931-.39337,5.89924,5.89924,0,0,0-.55572-.58271A.58491.58491,0,0,0,540.66327,380.784Z" transform="translate(-21.30017 -248.26875)"/><path class="cls-5" d="M544.61309,391.58119c.00843-.57977.05152-1.15942.04773-1.73889a2.398,2.398,0,0,0-.15887-.59064,2.713,2.713,0,0,0-1.1344,1.84876.63484.63484,0,0,1-.199-.84137c.38891-.48078.7514-.98749,1.17926-1.43091a4.08493,4.08493,0,0,1,1.85089-1.28247,1.40813,1.40813,0,0,0,.56665-.2367,1.10835,1.10835,0,0,0,.40271-.59314.5527.5527,0,0,0-.50714-.59216c-.5185-.06781-1.04523-.07135-1.568-.109a4.32244,4.32244,0,0,1-1.72094-.22937,5.70257,5.70257,0,0,0-1.579-.28278.12976.12976,0,0,0-.10181.0445c-.2771.36346-.54694.73248-.82654,1.09387-.09869.12757-.23016.23017-.32562.35962-.06238.0846-.144.21649-.1178.29334a6.24806,6.24806,0,0,0,.32538.69207c.24811-.22326.34784-.05688.39148.18769a2.76693,2.76693,0,0,1,.04852.53692c-.01184.59009.04407,1.13251.79321,1.32209a.65084.65084,0,0,1-.47393.00805c-.26227-.13428-.50251-.31116-.75452-.46606-.22968-.14118-.52258-.03528-.51038.2218a11.61073,11.61073,0,0,0,.19007,1.55218c.04138.224.21008.29761.44006.13782.29724-.20648.51886-.094.53192.272a2.36884,2.36884,0,0,1-.13055.55042l.37811.16876a.833.833,0,0,0,.35217,1.45282,1.33829,1.33829,0,0,0,1.24128-.21173,1.42185,1.42185,0,0,1,.524-.2027.95789.95789,0,0,0,.89325-1.12536A7.58984,7.58984,0,0,1,544.61309,391.58119Z" transform="translate(-21.30017 -248.26875)"/><path class="cls-5" d="M536.9209,387.441a.61772.61772,0,0,0,.60076-.57117c-.10943-.17968-.184-.4508-.33941-.51031-.12586-.04822-.40674.11481-.51715.26092C536.44684,386.90938,536.64062,387.44142,536.9209,387.441Z" transform="translate(-21.30017 -248.26875)"/><path class="cls-5" d="M537.1466,387.51668a.68873.68873,0,0,0-.08929.00329c-.19513.02075-.29724.13446-.27747.36792a.82413.82413,0,0,0,.18958.60858.36642.36642,0,0,0,.17322.09076.449.449,0,0,0,.10583.01c.27979-.00519.377-.16852.37488-.42724C537.61975,387.737,537.46844,387.52443,537.1466,387.51668Z" transform="translate(-21.30017 -248.26875)"/><path class="cls-5" d="M536.8338,392.35438c.09582-.2409.20886-.475.31439-.71209l.13135.01147c-.09918-.161-.18946-.32849-.29993-.48145-.12445-.1723-.11352-.283.07739-.40716a.631.631,0,0,0,.248-.89435c-.0993-.23553-.16364-.48584-.26221-.7218-.18829-.45075-.38977-.896-.58575-1.34351-.49329.8653-.0279,1.60327.21063,2.36341l-.14313.09314c-.28363-.26111-.57855-.51117-.84759-.78656-.2497-.2555-.42487-.62079-.71826-.78687a1.00887,1.00887,0,0,1-.52265-.77624,3.05044,3.05044,0,0,1,.17267-1.47144,1.16562,1.16562,0,0,0-.35437-1.10535,1.28577,1.28577,0,0,0-1.32892.20484,1.10941,1.10941,0,0,1-.71057.5401,2.66908,2.66908,0,0,0-.47864.24359,2.48618,2.48618,0,0,1-.546.19525,1.22814,1.22814,0,0,0-.76654.55835c-.04724.21979-.12.43408-.16961.65344a.41151.41151,0,0,0,.00134.25629c.14935.28326.3244.55286.47888.83356a.43275.43275,0,0,0,.5401.2384.87759.87759,0,0,1,1.02631.56622,3.32754,3.32754,0,0,1,.26025.69965c.069.25659.3523.46576.56494.67175.69831.67639,1.68878.75519,2.51325,1.182a6.13433,6.13433,0,0,1,.794.29742A.238.238,0,0,0,536.8338,392.35438Z" transform="translate(-21.30017 -248.26875)"/><path class="cls-5" d="M537.32495,385.71711c.01031-.02264-.15973-.16552-.17359-.15521a1.87441,1.87441,0,0,0-.35675.33832c-.01428.01825.11109.14587.23481.30286A4.47331,4.47331,0,0,0,537.32495,385.71711Z" transform="translate(-21.30017 -248.26875)"/><path class="cls-5" d="M537.37909,388.79341c-.0799.00574-.15241.11481-.30487.23895l.48266.41138c.07007-.08978.19568-.17743.19916-.26966A.33156.33156,0,0,0,537.37909,388.79341Z" transform="translate(-21.30017 -248.26875)"/><path d="M532.16735,370.43948c-.22919.01331-.45929.0202-.68933.02545-.3938.30231-.7738.62061-1.14392.94965a58.04347,58.04347,0,0,0-1.76184,8.7605l.3822.04791-.01013.11212a2.52669,2.52669,0,0,1-.40369.08649,50.0343,50.0343,0,0,0,.64264,16.04175c.16657-.01124.33295-.02424.49957-.03486.47272-.03009.94837-.01831,1.42261-.01709a2.65458,2.65458,0,0,1,.368.05109l.01312.09705-.16.11108.4386.14893-.00739.09417a2.44648,2.44648,0,0,1-.553.0481,10.51336,10.51336,0,0,0-1.929-.07343,44.60915,44.60915,0,0,0,1.687,5.84174,20.55478,20.55478,0,0,0,5.70941,3.32764h1.67029c.02673-.01636.0531-.03315.07874-.051a1.81888,1.81888,0,0,1,1.28888-.28876c2.04693.22577,4.10192.24451,6.157.27625a.62125.62125,0,0,1,.22607.06354h.11585a.38939.38939,0,0,0-.06354-.15052.29681.29681,0,0,0-.1507-.10339.48083.48083,0,0,0-.08288-.01953.7334.7334,0,0,0-.08374-.00671l-4.48-.14448c-.77918-.03594-1.55536-.137-2.33289-.20855l-.027-.13617c.2807-.12036.55439-.262.84345-.35663.58764-.19238,1.18176-.366,1.77771-.53137a1.3754,1.3754,0,0,1,.4129-.00128c.17859.00769.35773.03991.53522.03125.64093-.03131,1.28638-.03736,1.92065-.12329a13.44227,13.44227,0,0,0,3.026-.24c.92145-.34259,1.82038-.746,2.74414-1.08166a8.57839,8.57839,0,0,1,1.18958-.24463,4.75961,4.75961,0,0,0,.523-.13537c.31543-.10395.627-.21991.94006-.33088l.11.18433a2.309,2.309,0,0,1-.56568.481,6.153,6.153,0,0,1-1.65112.50244c-.6366.05658-1.01355.53088-1.54327.7392-.06647.02612-.05561.24914-.09461.4552.47327-.18573.86591-.30524,1.22669-.48767a16.37067,16.37067,0,0,1,3.68048-1.44635,3.0407,3.0407,0,0,0,.57361-.27607c.09179-.0437.20147-.12726.28076-.10669.37311.09668.53876-.15625.77759-.36071.29351-.25135.68-.39032,1.00183-.61322.38025-.26343.7326-.56678,1.10016-.8487.29358-.2251.60675-.42706.885-.66937.56732-.49414,1.098-1.032,1.682-1.50452a3.4,3.4,0,0,1,.98951-.51391.54528.54528,0,0,1,.07611-.01386,20.55748,20.55748,0,0,0,1.04687-1.87048V378.89993c-.48389-.61829-.96515-1.23859-1.45251-1.85413a.60851.60851,0,0,1,.31128-1.02642c.06506-.01484.13415-.01191.20074-.02015-.19861-.32129-.39593-.64257-.61139-.9519l-.01477-.00177a1.88957,1.88957,0,0,1-.61926-.50592c-.33618-.34522-.50305-.35761-.90778-.06751a.35139.35139,0,0,1-.58166-.11444,1.64567,1.64567,0,0,1-.25482-1.05969,1.67537,1.67537,0,0,0-.22883-.81836c-.14062-.30951-.3388-.59265-.507-.89007-.011-.01954-.00562-.0445-.01069-.06971-.37585-.33929-.76092-.66656-1.16113-.97778a1.41676,1.41676,0,0,0-.31482.65985,3.83686,3.83686,0,0,1-.64032,1.11908c-.03375.0509-.22387.04553-.3128.00421-.41608-.19305-.822-.4079-1.25946-.629l.01208.25763c-.20758.14472-.35016.25165-.50079.34571-.072.045-.17566.11084-.2367.08886a2.66972,2.66972,0,0,1-.57806-.2807c-.15332-.10254-.491-.0335-.41058-.3977.005-.02258-.17865-.10187-.28131-.13019a3.27008,3.27008,0,0,1-.732-.18945,2.69277,2.69277,0,0,0-1.13983-.42914c-.23529-.01825-.455-.23688-.7381-.39691-.05945-.32648-.28448-.475-.7265-.411a.50869.50869,0,0,1-.25641-.03363c-.05-.02088-.09955-.04267-.14941-.06372H535.144a.68477.68477,0,0,1-.36993,0h-2.11536c-.0379.03674-.07592.0733-.11615.1065C532.42083,370.263,532.2976,370.43191,532.16735,370.43948Zm5.48889,21.783a6.13433,6.13433,0,0,0-.794-.29742c-.82447-.42682-1.815-.50562-2.51325-1.182-.21265-.206-.496-.41516-.56494-.67175a3.32754,3.32754,0,0,0-.26025-.69965.87759.87759,0,0,0-1.02631-.56622.43274.43274,0,0,1-.5401-.23841c-.15448-.2807-.32953-.55029-.47888-.83355a.41158.41158,0,0,1-.00135-.25629c.04963-.21936.12238-.43365.16962-.65344a1.22814,1.22814,0,0,1,.76654-.55835,2.48618,2.48618,0,0,0,.546-.19525,2.66908,2.66908,0,0,1,.47864-.24359,1.10944,1.10944,0,0,0,.71057-.5401,1.28577,1.28577,0,0,1,1.32892-.20484,1.16564,1.16564,0,0,1,.35437,1.10535,3.0504,3.0504,0,0,0-.17267,1.47143,1.00888,1.00888,0,0,0,.52264.77625c.2934.16608.46857.53137.71827.78686.269.27539.564.52546.84759.78656l.14313-.09314c-.23853-.76013-.70392-1.4981-.21063-2.3634.196.44751.39746.89276.58575,1.34351.09857.236.1629.48626.26221.7218a.631.631,0,0,1-.248.89435c-.19092.12414-.20184.23486-.07739.40716.11047.153.20074.32044.29993.48145l-.13135-.01148c-.10553.23712-.21857.47119-.31439.7121A.238.238,0,0,1,537.65624,392.2225Zm.7182-6.91455c.01386-.01032.1839.13257.17359.15521a4.47462,4.47462,0,0,1-.29554.486c-.12371-.157-.24908-.2846-.2348-.30285A1.87441,1.87441,0,0,1,538.37444,385.308Zm.03089.79761c.15545.05951.23.33062.33941.51031a.61772.61772,0,0,1-.60077.57117c-.28027.00043-.47406-.53162-.25579-.82056C537.99859,386.22036,538.27947,386.05734,538.40533,386.10556Zm1.3031,2.62054c-.02338-.02051-.03943-.09363-.02631-.1051.31061-.2721.06677-.63532.13764-.94513l.12945-.00452q.111,1.036.22186,2.072l-.1568.03821a1.0476,1.0476,0,0,1-.13012-.34906C539.88757,389.17679,539.9331,388.92325,539.70843,388.7261Zm-.92847.46369-.48267-.41138c.15247-.12415.225-.23322.30487-.23895a.33157.33157,0,0,1,.377.38067C538.97564,389.01236,538.85,389.1,538.78,389.18979Zm.06647-1.27375c.00213.25873-.0951.42206-.37488.42725a.44961.44961,0,0,1-.10584-.01.36643.36643,0,0,1-.17321-.09076.82413.82413,0,0,1-.18958-.60858c-.01977-.23346.08234-.34717.27747-.36792a.69045.69045,0,0,1,.08929-.0033C538.69152,387.27047,538.84283,387.48306,538.84643,387.916Zm6.14465,5.346a1.42179,1.42179,0,0,0-.524.2027,1.33829,1.33829,0,0,1-1.24127.21173.833.833,0,0,1-.35217-1.45282l-.37811-.16876a2.36935,2.36935,0,0,0,.13055-.55042c-.01306-.366-.23468-.47845-.53192-.272-.23.15979-.39868.08618-.44006-.13782a11.61073,11.61073,0,0,1-.19007-1.55218c-.0122-.25708.2807-.363.51038-.22181.252.15491.49225.33179.75452.46607a.65085.65085,0,0,0,.47393-.00806c-.74914-.18957-.805-.732-.79321-1.32208a2.7671,2.7671,0,0,0-.04852-.53693c-.04364-.24456-.14337-.411-.39148-.18768a6.24734,6.24734,0,0,1-.32538-.69208c-.02625-.07684.05542-.20874.1178-.29333.09546-.12946.22693-.23206.32562-.35962.2796-.36139.54944-.73041.82654-1.09387a.12976.12976,0,0,1,.1018-.0445,5.70214,5.70214,0,0,1,1.579.28278,4.32266,4.32266,0,0,0,1.72095.22937c.52277.03766,1.0495.0412,1.568.109a.5527.5527,0,0,1,.50714.59216,1.10839,1.10839,0,0,1-.40271.59314,1.408,1.408,0,0,1-.56665.23669,4.08511,4.08511,0,0,0-1.8509,1.28248c-.42785.44342-.79034.95013-1.17926,1.4309a.63485.63485,0,0,0,.199.84137,2.71294,2.71294,0,0,1,1.1344-1.84875,2.39785,2.39785,0,0,1,.15887.59064c.00379.57946-.0393,1.15911-.04773,1.73889a7.5895,7.5895,0,0,0,.04816.80938A.95789.95789,0,0,1,544.99108,393.262Zm2.15051-4.89539a1.73534,1.73534,0,0,1-.22558.52393,1.74088,1.74088,0,0,0-.50617,1.28564.65147.65147,0,0,1-.05945.19721l-.1156-.01453a3.206,3.206,0,0,1,.14368-1.64166.32236.32236,0,0,1,.14758-.173C546.72637,388.47158,546.93572,388.42392,547.14159,388.3666Zm1.71875,3.95649.42182-1.40741a3.35951,3.35951,0,0,1,.1878.5238,2.59657,2.59657,0,0,1-.00915.46161C549.455,392.38205,549.34447,392.458,548.86034,392.32309Zm3.59845-11.25812c.28919.0755.60279.052.90143.09863.22193.03467.52234.041.6388.1825a1.36486,1.36486,0,0,0,1.00842.39154,2.60946,2.60946,0,0,1,1.10589.3858,5.16383,5.16383,0,0,1,2.30726,2.50476,2.49148,2.49148,0,0,1,.13879,1.37213,8.81638,8.81638,0,0,1-1.61383,3.26166,6.14741,6.14741,0,0,1-1.21259,1.41766,2.85549,2.85549,0,0,1-1.47625.67371c-.33277.03259-.64038.34247-.95508.53442-.75354.45978-.76142.43622-.98688-.41211-.27917-1.05029-.61279-2.08624-.93109-3.12591-.1095-.35755-.43427-.31165-.68048-.26422-.28436.05481-.39484.029-.537-.26453a1.388,1.388,0,0,0-.70563-.62121c-.361-.1377-.37548-.37037-.38031-.73334-.1286-.50873.38526-.65869.70575-.88989.33832-.24408.7013-.39863.73883-.903.01184-.15918.24128-.315.39246-.44818a1.2378,1.2378,0,0,0,.4234-.86359,14.72383,14.72383,0,0,1,.3891-1.92712C551.83562,381.01291,552.04308,380.95639,552.45879,381.065Zm-9.55578-.75629a5.90025,5.90025,0,0,1,.55572.5827.838.838,0,0,1,.09931.39338c.05371.43756.1726.5393.61.50109a.63148.63148,0,0,1,.69666.86377.40231.40231,0,0,1-.25763.22754c-.06183.01319-.17444-.11725-.23193-.20446-.06055-.09186-.0528-.2497-.12867-.30512-.10211-.07464-.31921-.14868-.3739-.09888a1.34861,1.34861,0,0,0-.2232.44068l.09979.04455c-.05615.13361-.084.34778-.17578.38a.50994.50994,0,0,1-.41053-.13275c-.26367-.23767-.49273-.51343-.74151-.76825a1.83369,1.83369,0,0,0-.39545-.35645.64647.64647,0,0,1-.25915-1.06885,1.04063,1.04063,0,0,0,.11956-.27758A.58492.58492,0,0,1,542.903,380.30868Zm-4.88684-10.14575c-.61609.40338-1.04157.36993-1.08686.03882.24189-.04431.475-.10034.71125-.12415A1.38245,1.38245,0,0,1,538.01617,370.16293Z" transform="translate(-21.30017 -248.26875)"/></svg>