<svg id="aa7fa6ff-056a-476e-bcea-b68b526b7613" data-name="Calque 1" xmlns="http://www.w3.org/2000/svg" viewBox="0 0 573.82749 260.2816"><defs><style>.b74778af-0c0c-4990-8ebb-2e6c297a2a54{fill:#543a07;}.a3bb8a02-a1b1-48a5-8439-03229895f59c,.a3c69362-9ab8-48cc-a0e2-e98818192cc6{fill:none;}.a3bb8a02-a1b1-48a5-8439-03229895f59c{stroke:#543a07;stroke-miterlimit:10;stroke-width:6px;}.f94b6ad9-8478-49d0-a6b1-34d6f524e5cd{fill:#055f00;}.bba6d5ca-18eb-4a81-ad72-3fe00ffcfd1d{fill:#fff;}</style></defs><title>benzai_bouteille2</title><path class="b74778af-0c0c-4990-8ebb-2e6c297a2a54" d="M463.24612,172.98239s-16.97888-37.22852,0-76.18674c0,0-14.34872-1.70023-18.59982-.36557,0,0-16.34466,39.90555,0,75.71628C444.64627,172.14636,458.0119,184.03744,463.24612,172.98239Z" transform="translate(0 0)"/><path class="a3bb8a02-a1b1-48a5-8439-03229895f59c" d="M553.46777,105.32284c-10.4364.50147-20.0935.92517-29.74316,1.455-2.73431.15008-5.44421.63006-8.17011.92376-7.00238.7544-10.24652,3.41712-12.05621,9.39051a84.62628,84.62628,0,0,0-3.39,27.1236c.16565,5.77948,1.68292,11.53345,2.679,17.28729.513,2.9633,2.699,4.72577,5.85675,5.39685,9.30039,1.97638,18.60483,3.94873,27.95713,5.71631,4.24462.80225,8.606,1.11768,13.4342,1.71857A126.90668,126.90668,0,0,1,553.46777,105.32284Z" transform="translate(0 0)"/><path class="a3bb8a02-a1b1-48a5-8439-03229895f59c" d="M565.91168,107.38516c-8.89081,5.84656-11.97748,56.33258-3.41223,65.31378C570.84473,164.89773,574.50769,118.92224,565.91168,107.38516Z" transform="translate(0 0)"/><path class="b74778af-0c0c-4990-8ebb-2e6c297a2a54" d="M332.217,247.43585a76.95672,76.95672,0,0,1-8.09909-5.99509,18.88972,18.88972,0,0,0-15.61325-5.14539c-3.77994.404-7.5751.63422-11.35993.98691a2.96934,2.96934,0,0,1-2.82809-1.454,71.17258,71.17258,0,0,0-7.39392-8.261c-5.691-5.18741-12.51578-8.30515-19.036-11.98044a74.96066,74.96066,0,0,1-10.2742-6.7052,16.6231,16.6231,0,0,0-9.31421-4.05246c-1.92465-.1427-3.86633.01184-5.80017-.00629a17.25839,17.25839,0,0,1-14.16139-6.87253,14.605,14.605,0,0,0-1.96376-2.041c-8.75325-7.55566-18.48667-11.76391-29.836-11.22986-10.12662.47654-20.27088.57871-30.40856.65287-3.74977.02737-7.48083-.67914-10.65594-3.154-3.22849-2.51651-3.39444-5.99329-.474-8.80279a24.98254,24.98254,0,0,1,2.92107-2.29786,79.54678,79.54678,0,0,1,23.00126-11.0542c16.10471-4.90881,32.389-9.10629,48.58769-13.64688a64.58467,64.58467,0,0,0,18.98862-8.38641c4.99927-3.37543,10.23874-4.13016,15.44769-1.4238a124.09956,124.09956,0,0,1,13.04306,8.4202c3.48926,2.41528,5.93146,4.20733,10.35685,4.77859,2.73336-.28555,6.73282,1.41422,7.15875-.57122.62421-2.90983-.39926-.257-.26035-4.14158.032-.89355-5.20089-1.75473-5.85711-2.285-4.49832-3.63489-7.39707-5.70752-12.10471-8.99719-5.882-3.42664-4.1-1.53522-6.5079-3.92737-.811-.80557-2.92877-2.47714-2.92853-3.6774.00006-.58557,1.86658-2.08853,2.01742-2.1065,4.097-.48864,5.553-.96252,9.4741-1.18815,2.78955-.16049,10.90942-1.471,13.69409-1.66809,1.18521-.084,1.6131-4.02084.13015-3.42752-2.07675.831-.3428-2.01812-1.54241-1.7137-8.388,2.12886-21.52677,1.73471-29.70743,6.05684a.14053.14053,0,0,1-.20157-.13707l.21341-10.23987c0-.65473-1.06366-.14319-1.65949-.17847-2.23416-.13226-1.9241,2.99921-2.46685,5.571a12.14447,12.14447,0,0,1-5.362,7.839c-3.80373,2.562-7.53882,5.25166-11.401,7.701a11.73965,11.73965,0,0,1-4.64,1.7766c-5.19753.662-6.5878-1.08277-6.14409-6.82309.432-5.58967.73251-11.19538.94067-16.80082.15083-4.0632-.2682-8.17657.13493-12.199,1.05062-10.48258,6.12586-17.54065,15.51307-20.57211.34246-.11063,2.61544-1.441,2.94754-1.58881-1.00647-2.17673-4.27887-1.38129-6.27521-.70163-8.23966,2.80545-13.42342,8.64038-15.30745,17.92679-.1277.62942-.29663,1.24875-.44635,1.8728-2.87875-7.65161-4.89089-15.35156-5.08775-23.5242-.009-.37472-.05382-2.00034-.39545-2.00034l-1.31781-.21424c-.41461,0-.396,1.78688-.42264,2.10646-.75549,9.04791,1.65337,17.46185,3.46246,26.05066.03478.165-.1255.21988-.252.1228-7.96163-6.10825-9.4919-6.70746-13.88381-10.464-.50465-.43164-2.44939-1.78441-3.00993-1.446-1.64286.992-.80573,2.478-1.78966,4.17724-.27679.478,1.88387,2.21585,2.31029,2.53494,3.12887,2.34086,5.67358,5.65186,8.85116,8.19,4.46476,3.56628,7.725,8.10836,8.454,14.319a54.58517,54.58517,0,0,1,.03831,6.307l-.51606.06989a16.47543,16.47543,0,0,0-6.744-8.6742c-5.9855-4.032-12.23184-6.51123-19.06874-2.678-3.60454,2.021-7.63847,3.96173-10.94273,6.51779a.12134.12134,0,0,1-.02989.017c-4.17876,1.6361-7.39292,4.09793-12.08494,3.45465-1.51994-.20838-5.94841-.44681-7.4624-.73038l-.0095-.00131c-5.77764-.52719-8.52982-.06763-13.87218-.37107-.84831-.33923-1.672-.19922-2.1368-.72186-2.93751-3.30342-4.96617-9.006-6.28509-13.68436-.08254-.293-1.24248,1.33573-3.41663-.58017-.10487-.09246-.32123,1.03333-.29583,1.17832.8392,4.79523,7.1114,13.14313,4.32264,16.5661-.48.58911-2.07763.27124-3.24583.00894a27.339,27.339,0,0,0-5.47472-.31948,34.88236,34.88236,0,0,1-4.91466.12107,11.35,11.35,0,0,0-1.40213-.48439c-.45123,2.21158-2.05769,1.98276-3.75837,4.41825-.02853.041,3.53134,1.49466,3.57528,1.51291,1.8873.78545,4.09847,1.92118,5.40157,2.10645,3.75623.53415,4.21387,1.21393,8.8996,1.53522,5.26156.06521,9.793.44682,15.05671.42138l9.25034-.66235c4.7345-.723,7.40274-.90152,11.50032-2.69983,6.41434-3.33438,11.0181-6.25607,15.71284-8.57224,2.923-1.30224,6.34438-1.5718,9.55869-1.682,3.00578-.103,5.071,2.01462,6.06557,5.14337a11.07813,11.07813,0,0,1-1.05275,9.42218,16.17068,16.17068,0,0,1-13.02268,8.24078c-5.044.502-10.13359.49079-15.16617,1.083-10.592,1.2464-20.71322,4.71527-30.5854,8.90341-10.37337,4.40085-17.2111,15.41229-16.96364,27.61233.20079,9.89481,3.15056,18.10044,10.96447,23.13172,5.12493,3.29986,10.80056,4.49881,16.62588,5.05572,9.49179.90747,18.91385-.33133,28.357-1.06549,4.78394-.372,9.58707-.54609,14.38318-.5888,2.53568-.02271,5.612,2.44656,5.83074,4.23184.255,2.08032-1.61354,3.99466-4.70207,5.16516a12.44555,12.44555,0,0,0-4.57741,2.47623,17.81973,17.81973,0,0,1-10.28438,5.355c-4.16982.6572-8.29077,1.548-11.82936,4.33338a1.68452,1.68452,0,0,1-1.1041.39953c-3.31286-.38809-6.12219,1.128-8.90487,2.75708a7.58866,7.58866,0,0,1-6.77892.63916,23.95607,23.95607,0,0,0-11.2764-1.04641c-4.71571.51223-9.32684,1.44288-13.18435,4.94442-1.84522,1.67484-3.98281,3.046-6.55939,2.73844-5.613-.67008-9.24056,2.41629-11.35915,7.66244-.64729,1.60282-1.29208,2.64356-2.36992,3.17911v6.27219h204.2V247.5639H332.463A1.60591,1.60591,0,0,1,332.217,247.43585Zm-83.66382-33.471a1.3471,1.3471,0,0,1,1.08606-.69329,5.75074,5.75074,0,0,1,2.33017.45611c2.494,1.19325,4.97962,2.42169,7.40061,3.78192q9.9369,5.583,19.81182,11.29819c2.33411,1.34882,4.59327,2.85382,6.88663,4.28751l-.384.75128c-3.69119-3.23029-7.909-3.7208-12.37717-2.98758a.43254.43254,0,0,1-.26489-.057c-7.4823-4.91022-15.83981-8.14947-22.67593-14.29239a10.71136,10.71136,0,0,1-1.37375-1.2605,1.78163,1.78163,0,0,1-.43958-1.28421Zm-19.41739-.04223a32.61916,32.61916,0,0,1,3.55944.02545,36.51616,36.51616,0,0,1,4.71661.82956c1.48169.36471,3.13953.56972,4.34589,1.45718,5.37765,3.95652,10.61126,8.14865,15.90245,12.24668a.15777.15777,0,0,1-.06354.27865c-1.743.24207-3.48077.53656-5.22708.74478-2.56366.30558-4.71555.44034-5.9451-3.17556-1.16916-3.43836-4.20651-5.36686-7.3288-6.71509-2.662-1.1496-5.36729-2.18091-8.01257-3.3736a11.95372,11.95372,0,0,1-2.151-1.633q.10178-.34255.20367-.685Zm-2.91516,2.3696a.1387.1387,0,0,1,.258-.03315c2.6355,4.59113,6.68426,6.20145,10.74588,7.82529,2.47055.9877,4.95944,1.99484,6.8692,4.5495a.16764.16764,0,0,1-.1091.2645c-2.89752.17825-5.43753.39651-8.02612.38348a.26436.26436,0,0,1-.21714-.15427c-1.79921-4.2611-4.39308-7.51284-8.415-9.17953-1.53571-.63641-1.62721-1.84837-1.10574-3.65579Zm-17.06578,16.58957c2.54517-2.69556,5.08231-5.4004,7.64516-8.07557a1.22825,1.22825,0,0,1,.89545-.38589c3.16026.38985,6.39155.50528,9.44459,1.37073,1.84743.52377,3.44679,2.10089,5.04169,3.67422a.16041.16041,0,0,1-.06017.2655c-7.6356,2.11078-14.96953,5.173-22.89407,3.4213a.16553.16553,0,0,1-.07265-.27029Zm-21.52408-5.54422c4.74927-3.131,9.319-5.76239,14.99021-3.92313,2.86572.9294,3.35409,1.92825,1.70741,4.75629-.3941.67691-.81651,1.334-1.02319,1.66442a.12923.12923,0,0,1-.13376.06095l-15.484-2.26651a.1631.1631,0,0,1-.05668-.292Z" transform="translate(0 0)"/><path class="f94b6ad9-8478-49d0-a6b1-34d6f524e5cd" d="M242.71866,70.99511c-5.19208,1.567-9.8967.679-13.74193-3.92276a13.29966,13.29966,0,0,1-16.21,1.351c.24076,5.5625.74488,11.24685-5.657,13.86645-.04006.53711-.1435,1.39639-.16178,2.25784-.09747,4.591-3.31013,9.089-7.51562,9.70639-9.76148,1.43317-18.04926-2.9833-18.5-15.89471A15.80076,15.80076,0,0,1,181.01,75.511a2.81158,2.81158,0,0,0-1.28229-3.01742c-4.53337-3.52393-6.00471-11.00211-3.3155-16.35025,1.33429-2.65354,3.41531-4.03595,6.24035-3.88047.65319.036,1.30428.11759,1.91843.17466,3.39349-8.57914,4.92641-9.6052,13.554-8.876-1.71721-4.07666-2.057-8.105.122-11.94214,2.14942-3.78513,5.28289-5.88849,9.37067-6.03574.75533-6.914,2.74789-9.57116,8.98064-11.42642,9.75-2.90222,19.05128-1.34527,27.79817,4.03308,4.49872,2.76621,5.832,4.91968,8.83316,12.60718,2.7878-3.51178,6.26451-3.37915,9.91194-2.305a17.4592,17.4592,0,0,1,11.19574,9.33679,15.18912,15.18912,0,0,1,10.12122-.90143c5.0476,1.26251,7.88845,4.63288,8.45511,10.25223a2.75959,2.75959,0,0,0,1.73623,2.70068c7.69577,3.63794,8.85138,14.981,2.10233,19.73984a1.66249,1.66249,0,0,0-.674,2.25245q.02389.04431.05041.08706a8.3345,8.3345,0,0,1-.50571,6.56668c-2.43145,5.35086-7.63476,8.80923-11.94143,7.42563-2.21341-.71109-4.15665-2.43463-6.38935-3.80325a40.68545,40.68545,0,0,1-5.97293,2.19159c-5.573,1.18359-10.134-.824-13.35412-6.01216a2.42325,2.42325,0,0,0-2.602-1.38562c-2.24524.19284-4.5043.21061-6.75827.243a1.48484,1.48484,0,0,1-1.01727-.48138C245.98648,74.879,244.42682,73.00958,242.71866,70.99511Z" transform="translate(0 0)"/><path class="f94b6ad9-8478-49d0-a6b1-34d6f524e5cd" d="M89.26573,93.36657C88.50438,85.95,90.2683,79.82666,96.74932,76.504c5.8299-2.98886,11.72183-2.682,17.65756.6932.26359-6.40219,2.81675-11.22146,7.73507-14.26856,4.78318-2.96331,9.80976-3.59509,14.89783-.86929,5.46455-6.51007,15.07368-5.25,19.27966,2.41978.39635.72277,1.11223,1.585,1.78893,1.71906,8.48067,1.68045,11.84073,6.28335,11.978,15.24627a2.85084,2.85084,0,0,0,.135.53311c1.04794.20685,2.16312.34168,3.23482.65537,2.64763.775,4.15248,2.79737,4.42265,5.79458.63734,7.07038-5.36186,16.18888-11.67828,17.7504-3.08171.76184-5.43059.0593-9.05535-2.77508-6.47253,6.26657-12.66942,4.69934-18.86328-1.46018-1.40916,4.87552-4.3831,6.95551-9.29635,5.99542a17.65,17.65,0,0,1,2.43817,10.00675c-.03574,3.09317-1.69295,5.24835-3.03118,7.65457a29.042,29.042,0,0,0-2.88458,6.05894,17.01918,17.01918,0,0,1-14.88573,12.32706c-4.4906.35937-8.76409-.36734-12.53521-3.4117a2.16361,2.16361,0,0,0-2.0132.11652c-4.90116,2.89233-9.86122,3.3749-14.95743.69445-5.68844-2.99194-7.86032-8.63433-5.91406-16.053.65429-2.494,1.95133-4.7791,2.854-7.20474a2.83617,2.83617,0,0,0,.05284-2.08133c-6.65808-9.98151-.23343-20.6962,9.66555-22.397C88.22218,93.57156,88.66762,93.48007,89.26573,93.36657Z" transform="translate(0 0)"/><path class="f94b6ad9-8478-49d0-a6b1-34d6f524e5cd" d="M299.52136,138.75579c-5.61706-3.43205-5.4768-8.02942-2.0859-13.5141-6.07126-.435-9.00467-3.76965-7.80689-10.49789-6.50919-.1387-7.80124-.99042-8.65424-5.63641-3.96563,2.144-7.79653,2.90051-11.09277-1.6929-.88809,3.28482-3.03857,4.002-5.78189,3.66284a2.35762,2.35762,0,0,0-1.739.57657,7.103,7.103,0,0,1-6.00251,1.719,4.89185,4.89185,0,0,1-3.24139-2.14914c-.65176-1.08606-1.08316-1.80638-2.33527-2.10535-1.85722-.44351-2.65585-2.16922-2.80111-4.10144a16.16079,16.16079,0,0,1,2.29135-9.79626c1.4187-2.329,3.60818-3.08573,6.04538-3.26834a2.88848,2.88848,0,0,0,1.789-.56354c4.584-4.71964,8.712-4.101,11.77628,2.00273,1.81283-2.46415,4.24609-2.71531,6.83819-2.35306,2.84192.39718,4.53079,2.2514,5.38388,5.61313,1.67142-3.50116,4.25733-4.53543,7.29047-4.249,2.94589.27826,5.63553,1.26578,7.21918,4.68647.4519-.66684.83114-1.20688,1.19171-1.76157a7.06735,7.06735,0,0,1,11.63107-.674,2.10789,2.10789,0,0,0,1.46027.71594c4.26214-.03283,7.34243,2.345,9.81185,5.82859,1.72873,2.43876,1.29676,5.25168.70307,8.0046-.21152.98079-.49909,1.94185-.68158,2.642,2.4736,1.1615,4.922,1.9701,7.03809,3.37931a9.45914,9.45914,0,0,1,3.88742,11.471,2.73181,2.73181,0,0,0,.16946,1.8132c3.52136,8.09445.66241,14.489-7.457,16.60745-.04523.01178-.07434.09793-.17307.23654,3.45023,2.81256,4.39243,6.80277,3.87793,11.19983-.53289,4.55426-2.74679,7.84754-7.07281,9.17728,1.05752,2.89465.78067,5.38315-1.39111,7.41785-2.55155,2.39056-5.45484,3.165-8.56025,1.802a50.59415,50.59415,0,0,1-5.75906-3.461c-3.55383,4.463-6.91959,5.44638-11.32239,3.22491a11.734,11.734,0,0,1-6.30526-12.66424,10.53308,10.53308,0,0,1,2.42883-5.10239c1.8725-2.00542,2.36328-4.34924,2.67151-6.94537.255-2.14844.56158-4.29648.99-6.40937a3.42942,3.42942,0,0,1,1.14367-1.93414C296.35889,140.58984,297.94461,139.72546,299.52136,138.75579Z" transform="translate(0 0)"/><path class="f94b6ad9-8478-49d0-a6b1-34d6f524e5cd" d="M74.21044,5.9015C41.38068,20.7525,0,83.608,0,129.32193c0,45.0229,30.23174,95.68591,72.09873,121.76036a14.28511,14.28511,0,0,0,5.35472,2.25814l.0754.01133c6.31147.94842,12.62735,1.87078,18.97068,2.57516,9.17373,1.01865,18.36636,1.86466,27.58043,2.403,11.85553.69268,23.71978,1.4331,35.5896,1.6499,17.97137.32818,35.95044.28931,53.92633.29864,13.37884.007,26.76233.02893,40.13543-.29657,13.15424-.32019,26.31281-.84423,39.44178-1.70312,10.33306-.6759,20.65692-1.74591,30.92547-3.0932a75.206,75.206,0,0,0,37.59924-15.84137,206.6346,206.6346,0,0,0,22.17194-19.75287c8.23084-8.76776,15.64575-18.33128,23.0509-27.83331,4.39808-5.64337,10.4264-7.921,16.85712-9.2229a103.44913,103.44913,0,0,1,31.0387-1.55835c5.267.531,10.5899.48486,15.8797.82159a54.41927,54.41927,0,0,1,8.49676,1.03143,7.5421,7.5421,0,0,1,3.858,2.43024c5.88446,7.12988,16.18113,7.83191,22.64408,1.33771a48.33643,48.33643,0,0,0,5.83624-6.50617c.11444-.16711.2312-.32025.34949-.4646l7.27759-10.00256q-5.747-1.342-11.48438-2.72467a6.31853,6.31853,0,0,1-5.19617-5.39687c-.88372-5.75384-2.22979-11.50775-2.37677-17.28729a94.7884,94.7884,0,0,1,3.00763-27.12353c1.60559-5.97338,4.48383-8.6361,10.69635-9.39057,2.73871-.33252,5.45917-.904,8.21344-.96469l.00977-.01794L512.00659,90.54843c-3.28277-4.1416-7.64618-6.8739-13.88263-6.43506-2.05182.14441-4.47906.55926-5.98657,1.77563-4.44788,3.58886-9.72144,3.60131-14.79864,3.7395-11.7768.3205-23.57728.40741-35.34986.02466a56.541,56.541,0,0,1-22.714-5.053,17.83,17.83,0,0,1-6.3836-5.17584c-5.71305-7.3685-11.37134-14.80426-16.58841-22.52667a133.80853,133.80853,0,0,0-28.2873-29.8689c-10.10028-7.994-21.298-14.29748-34.31054-16.36334-9.29938-1.47632-18.62445-2.88379-27.98682-3.84833-14.4281-1.48639-28.89429-2.61279-43.35235-3.794-4.75422-.38843-9.5315-.52338-14.30121-.688-19.61579-.67718-39.23151-1.36151-58.85-1.95166-5.545-.16675-11.09985.029-16.64917-.03473C166.63055.2805,160.697.01176,154.76263.00029c-4.858-.0094-9.717.21185-14.57452.36335-13.82581.4314-27.66345.65424-41.47162,1.41094A124.26784,124.26784,0,0,0,78.23333,4.29077m396.99351,169.469c-3.66962-.18109-7.3736-.20325-11.04236-.57416a156.95,156.95,0,0,0-37.22687.38019c-11.39648,1.56079-20.754,6.14777-27.91113,15.79791-10.80628,14.57038-22.33624,28.60419-36.70044,40.005-11.18225,8.8753-23.37384,15.69848-37.68933,17.37475-14.647,1.71515-29.37323,3.06873-44.10242,3.69214-22.05713.9336-44.1452,1.30518-66.22388,1.50775-16.45111.15088-32.90838-.32861-49.36261-.55493A586.7882,586.7882,0,0,1,94.70756,246.674c-2.64381-.35575-5.27832-.79273-7.90505-1.28531a43.64345,43.64345,0,0,1-21.694-10.943c-33.65-31.31288-52.7697-66.90657-52.7697-105.1237,0-40.51774,21.491-78.39512,59.0038-111.05695a17.76121,17.76121,0,0,1,8.79888-4.248l.06041-.00961c7.9533-1.25452,15.96215-2.41864,23.99-2.88513,16.74312-.9729,33.5102-1.6012,50.27572-2.08948,7.835-.22815,15.68884.21027,23.53442.326,14.76178.21783,29.533.167,44.28332.69684,16.738.60113,33.46282,1.62762,50.18309,2.63953q16.20447.9807,32.37562,2.48522c6.339.58893,12.61517,1.83631,18.95043,2.48774,10.80939,1.11145,21.00159,4.04113,30.30585,9.72259,17.32727,10.58051,29.83008,25.98487,41.67938,42.003,3.96338,5.35772,7.35621,11.16474,11.58466,16.29242,5.404,6.55329,13.242,9.01642,21.23773,10.58,14.81452,2.897,29.79663,2.90057,44.80164,2.0072,1.87567-.11169,3.75421-.17645,5.79938-.27069-8.0373,24.98059-8.01148,49.99847-3.97629,75.75708Zm23.42508-67.549c-1.97577,2.61963-3.10535,6.06524-3.95124,9.31665a107.14925,107.14925,0,0,0-1.87591,42.90532c1.08063,7.35944,2.99975,14.55849,11.40063,17.286.243.07892.386.4659.55976.68874-3.44458,7.36462-12.21436,9.62573-17.8465,1.0133a29.98956,29.98956,0,0,1-3.7735-10.39142c-2.93652-14.61255-2.44653-29.38861-.66125-44.042.87609-7.19055,3.021-14.31006,5.33264-21.21361,1.61181-4.81354,4.94964-8.89527,10.58868-9.40265,4.49487-.40442,7.51459,2.21875,9.214,5.56116-3.29034,2.94531-6.67261,5.20941-8.98743,8.2785Z" transform="translate(0 0)"/><path class="bba6d5ca-18eb-4a81-ad72-3fe00ffcfd1d" d="M453.43713,110.32644l-.66406,3.02979-.75683-.34179-1.16407,5.35106-1.458-.647-1.66993-1.542-.15136.727-3.29786-1.41063q-1.45752-.64749-.86132-3.332l.42675-1.9458,1.43164.61769q-.36621,1.59888.39258,1.93359l1.20313.52735.34863-1.51513,1.36524.59522-.17872.8164,1.627,1.58838.52148-2.38086-6.5625-2.86182.666-3.03759,6.54489,2.86621.166-.75537,1.45606.65478-.16016.73242Z" transform="translate(0 0)"/><path class="bba6d5ca-18eb-4a81-ad72-3fe00ffcfd1d" d="M450.82092,119.10824l-.957,8.55567-1.5332-.48438.43164-3.898-1.51172-.47461-.4209,3.86817-1.51855-.4751.4375-3.88184-1.53321-.49219q-.75736-.257-.875.59424l-.32226,3.0459-1.48242-.45557.51562-4.65087q.25342-2.354,1.75781-1.88038l2.28418.73292.16993-1.52979,1.51171.47461-.165,1.55371,1.541.49315.166-1.56152Z" transform="translate(0 0)"/><path class="bba6d5ca-18eb-4a81-ad72-3fe00ffcfd1d" d="M450.67737,129.41091l-.02637,3.15625L445.88342,134.66l3.92285.79883-.01074,3.17188-7.02734-1.46534q-1.59082-.38011-1.53906-2.68457l.00976-1.17187,4.9043-1.709-4.88965-1.041.01855-3.13281Z" transform="translate(0 0)"/><path class="bba6d5ca-18eb-4a81-ad72-3fe00ffcfd1d" d="M449.99081,140.21221l.71094,7.7876-1.60742-.16894L443.193,143.117l.374,4.13965-1.5918-.16211-.68945-7.80566,1.56933.17187,5.919,4.74415-.35938-4.15625Z" transform="translate(0 0)"/><path class="bba6d5ca-18eb-4a81-ad72-3fe00ffcfd1d" d="M451.75549,149.3406l.56543,3.11231-.78125-.0166.54688,3.04492q.40283,2.26171-1.19141,2.22656l-7.16211-.127-.52539-2.9375,2.37988.03516-.30175-1.61231,1.61816.03125.29883,1.59766,3.17871.05664-.41992-2.35352-5.91211-.10742-.5625-3.08984Z" transform="translate(0 0)"/><path class="bba6d5ca-18eb-4a81-ad72-3fe00ffcfd1d" d="M453.05334,159.59548l.77247,3.03614-8.74414.45312-.77344-3.03515Z" transform="translate(0 0)"/><path class="a3c69362-9ab8-48cc-a0e2-e98818192cc6" d="M529.20654,133.41983a14.7236,14.7236,0,0,0-.3891,1.92712,1.23764,1.23764,0,0,1-.4234.86359c-.15118.13316-.38061.289-.39245.44818-.03754.50439-.40052.65893-.73883.903-.3205.2312-.83435.38116-.70575.88989.00482.363.01934.59566.38031.73334a1.38832,1.38832,0,0,1,.70562.62121c.14216.29352.25263.31934.537.26453.24622-.04743.571-.09332.68048.26424.3183,1.03967.65192,2.07562.93109,3.12591.22547.84833.23334.87189.98688.41211.3147-.192.62232-.50183.95508-.53442a2.85557,2.85557,0,0,0,1.47626-.67371,6.14806,6.14806,0,0,0,1.21258-1.41766,8.8158,8.8158,0,0,0,1.61383-3.26166,2.49128,2.49128,0,0,0-.13879-1.37213,5.16383,5.16383,0,0,0-2.30725-2.50476,2.60987,2.60987,0,0,0-1.1059-.38581,1.36488,1.36488,0,0,1-1.00842-.39154c-.11646-.14154-.41687-.14782-.63879-.18249-.29865-.04663-.61225-.02313-.90143-.09863C529.51984,132.94155,529.31238,132.99807,529.20654,133.41983Z" transform="translate(0 0)"/><path class="a3c69362-9ab8-48cc-a0e2-e98818192cc6" d="M526.94672,143.42465a3.36432,3.36432,0,0,0-.18781-.52381l-.42181,1.40741c.48413.13489.59466.059.60046-.422A2.5979,2.5979,0,0,0,526.94672,143.42465Z" transform="translate(0 0)"/><path class="a3c69362-9ab8-48cc-a0e2-e98818192cc6" d="M523.85522,140.70236a3.20615,3.20615,0,0,0-.14367,1.64166l.1156.01453a.65111.65111,0,0,0,.05945-.19721,1.74065,1.74065,0,0,1,.50616-1.28564,1.73555,1.73555,0,0,0,.22559-.52393c-.20587.05731-.41522.105-.61554.17755A.32227.32227,0,0,0,523.85522,140.70236Z" transform="translate(0 0)"/><path class="a3c69362-9ab8-48cc-a0e2-e98818192cc6" d="M519.3631,132.51522a1.03976,1.03976,0,0,1-.11957.27759.64646.64646,0,0,0,.25916,1.06885,1.83421,1.83421,0,0,1,.39544.35644c.24878.25484.47785.53058.74152.76825a.51.51,0,0,0,.41052.13277c.09174-.03223.11963-.2464.17578-.38l-.09979-.04456a1.34842,1.34842,0,0,1,.22321-.44067c.05468-.04981.27178.02423.3739.09887.07586.05542.06811.21326.12866.30512.05749.08722.1701.21765.23193.20447a.40233.40233,0,0,0,.25763-.22754.63147.63147,0,0,0-.69665-.86377c-.43744.03821-.55634-.06354-.61-.5011a.83785.83785,0,0,0-.0993-.39337,5.89789,5.89789,0,0,0-.55573-.58271.58491.58491,0,0,0-1.01672.22138Z" transform="translate(0 0)"/><path class="a3c69362-9ab8-48cc-a0e2-e98818192cc6" d="M523.31293,143.3124c.00842-.57977.05151-1.15942.04773-1.73889a2.39882,2.39882,0,0,0-.15888-.59064,2.71293,2.71293,0,0,0-1.1344,1.84876.63482.63482,0,0,1-.199-.84137c.38891-.48077.7514-.98749,1.17926-1.43091a4.085,4.085,0,0,1,1.85089-1.28247,1.40858,1.40858,0,0,0,.56665-.23669,1.10848,1.10848,0,0,0,.40271-.59314.55272.55272,0,0,0-.50714-.59217c-.51849-.06781-1.04523-.07135-1.568-.109a4.32267,4.32267,0,0,1-1.721-.22937,5.7014,5.7014,0,0,0-1.579-.28278.12987.12987,0,0,0-.10181.0445c-.2771.36346-.54693.73248-.82654,1.09389-.09869.12756-.23016.23016-.32562.35962-.06238.08459-.144.21649-.1178.29333a6.24841,6.24841,0,0,0,.32538.69208c.24811-.22327.34784-.05689.39148.18768a2.765,2.765,0,0,1,.04852.53693c-.01184.59009.04407,1.13251.79322,1.32208a.651.651,0,0,1-.47394.00806c-.26227-.13428-.5025-.31116-.75452-.46607-.22967-.14117-.52258-.03528-.51037.2218a11.60986,11.60986,0,0,0,.19006,1.55219c.04138.224.21008.29761.44006.13782.29724-.2065.51886-.094.53192.272a2.36669,2.36669,0,0,1-.13055.55041l.37811.16878a.833.833,0,0,0,.35218,1.45282,1.33829,1.33829,0,0,0,1.24127-.21173,1.42158,1.42158,0,0,1,.524-.2027.95784.95784,0,0,0,.89325-1.12536A7.60237,7.60237,0,0,1,523.31293,143.3124Z" transform="translate(0 0)"/><path class="a3c69362-9ab8-48cc-a0e2-e98818192cc6" d="M515.62073,139.17224a.61771.61771,0,0,0,.60077-.57117c-.10944-.17969-.184-.45081-.33942-.51032-.12585-.0482-.40674.11481-.51715.26093C515.14667,138.64062,515.34045,139.17263,515.62073,139.17224Z" transform="translate(0 0)"/><path class="a3c69362-9ab8-48cc-a0e2-e98818192cc6" d="M515.84644,139.24792a.69171.69171,0,0,0-.0893.0033c-.19513.02075-.29724.13446-.27746.36792a.82406.82406,0,0,0,.18957.60858.36666.36666,0,0,0,.17322.09076.451.451,0,0,0,.10583.01c.27979-.00519.377-.16852.37488-.42724C516.31958,139.46823,516.16827,139.25567,515.84644,139.24792Z" transform="translate(0 0)"/><path class="a3c69362-9ab8-48cc-a0e2-e98818192cc6" d="M515.53363,144.0856c.09583-.24091.20886-.475.31439-.7121l.13135.01147c-.09918-.161-.18945-.32849-.29993-.48144-.12445-.1723-.11352-.283.0774-.40717a.631.631,0,0,0,.27337-.84945q-.01172-.023-.02539-.04489c-.0993-.23554-.16363-.48584-.26221-.72182-.18829-.45075-.38977-.896-.58575-1.34351-.49329.8653-.02789,1.60327.21063,2.36341l-.14312.09314c-.28364-.26111-.57856-.51117-.8476-.78656-.24969-.2555-.42487-.62079-.71826-.78687a1.00887,1.00887,0,0,1-.52265-.77624,3.05073,3.05073,0,0,1,.17267-1.47144,1.16562,1.16562,0,0,0-.35437-1.10535,1.28576,1.28576,0,0,0-1.32892.20484,1.10935,1.10935,0,0,1-.71057.5401,2.6683,2.6683,0,0,0-.47863.24359,2.48657,2.48657,0,0,1-.546.19527,1.22823,1.22823,0,0,0-.76655.55833c-.04724.21979-.12.4341-.16961.65344a.41146.41146,0,0,0,.00134.25629c.14935.28326.3244.55285.47888.83356a.43272.43272,0,0,0,.5401.2384.87762.87762,0,0,1,1.02631.56622,3.32728,3.32728,0,0,1,.26025.69965c.069.25661.3523.46576.56494.67175.69834.67639,1.68882.75517,2.51328,1.182a6.13177,6.13177,0,0,1,.794.29742.238.238,0,0,0,.40069-.12207Z" transform="translate(0 0)"/><path class="a3c69362-9ab8-48cc-a0e2-e98818192cc6" d="M516.02478,137.44833c.01032-.02265-.15973-.16553-.17358-.15521a1.876,1.876,0,0,0-.35675.3383c-.01429.01825.11108.14587.2348.30286A4.47091,4.47091,0,0,0,516.02478,137.44833Z" transform="translate(0 0)"/><path class="a3c69362-9ab8-48cc-a0e2-e98818192cc6" d="M516.07892,140.52462c-.0799.00574-.15241.11481-.30487.239l.48266.41138c.07007-.08978.19568-.17743.19916-.26966a.33157.33157,0,0,0-.37695-.38067Z" transform="translate(0 0)"/><path d="M510.86719,122.17071c-.22919.01331-.45929.0202-.68933.02545-.3938.30231-.77381.62062-1.14392.94966a58.04014,58.04014,0,0,0-1.76185,8.7605l.38221.04791-.01013.11213a2.52425,2.52425,0,0,1-.40369.08648,50.03256,50.03256,0,0,0,.64264,16.04175c.16656-.01125.33294-.02425.49957-.03487.47272-.03009.94836-.01831,1.42261-.01709a2.65928,2.65928,0,0,1,.368.05109l.01312.097-.16.11108.4386.14893-.00739.09418a2.44642,2.44642,0,0,1-.553.04809,10.51427,10.51427,0,0,0-1.929-.07342,44.61536,44.61536,0,0,0,1.687,5.84173,20.555,20.555,0,0,0,5.70941,3.32764h1.67029c.02673-.01636.0531-.03316.07873-.051a1.8189,1.8189,0,0,1,1.28888-.28876c2.04694.22577,4.10193.24451,6.157.27624a.62075.62075,0,0,1,.22607.06354h.11584a.39018.39018,0,0,0-.06353-.15051.29646.29646,0,0,0-.1507-.10339.48208.48208,0,0,0-.08288-.01954.73161.73161,0,0,0-.08374-.00671l-4.48-.14447c-.77917-.036-1.55535-.137-2.33288-.20856l-.027-.13617c.2807-.12036.55438-.262.84345-.35663.58764-.19238,1.18176-.366,1.77771-.53137a1.37519,1.37519,0,0,1,.4129-.00128c.17859.00769.35773.03992.53522.03125.64093-.03131,1.28637-.03735,1.92065-.12329a13.44167,13.44167,0,0,0,3.026-.24c.92145-.34259,1.82038-.746,2.74414-1.08166a8.58161,8.58161,0,0,1,1.18958-.24463,4.75812,4.75812,0,0,0,.523-.13538c.31543-.104.627-.21991.94006-.33088l.11.18432a2.30969,2.30969,0,0,1-.56568.481,6.15379,6.15379,0,0,1-1.65112.50244c-.6366.05658-1.01355.53088-1.54327.73919-.06647.02613-.05561.24915-.09461.45521.47327-.18573.86591-.30524,1.22669-.48768a16.372,16.372,0,0,1,3.68048-1.44635,3.04212,3.04212,0,0,0,.57361-.27607c.09179-.0437.20147-.12726.28076-.10669.3731.09668.53875-.15625.77758-.36071.29352-.25134.68-.39031,1.00184-.61322.38024-.26342.7326-.56677,1.10015-.84869.29358-.2251.60675-.42706.885-.66937.56733-.49414,1.098-1.032,1.682-1.50452a3.39993,3.39993,0,0,1,.9895-.51391.54575.54575,0,0,1,.07611-.01386,20.57118,20.57118,0,0,0,1.04688-1.87048V130.63116c-.48389-.61829-.96515-1.23859-1.45252-1.85413a.60851.60851,0,0,1,.31128-1.02642c.06507-.01484.13416-.01191.20075-.02015-.19861-.32129-.39594-.64257-.61139-.95189l-.01477-.00177a1.88925,1.88925,0,0,1-.61926-.50592c-.33619-.34523-.50306-.35762-.90778-.06752a.35142.35142,0,0,1-.58167-.11444,1.64578,1.64578,0,0,1-.25482-1.05969,1.67568,1.67568,0,0,0-.22882-.81836c-.14062-.30951-.3388-.59265-.507-.89007-.011-.01954-.00561-.0445-.01068-.06971-.37585-.33928-.76092-.66655-1.16113-.97778a1.41652,1.41652,0,0,0-.31482.65985,3.83757,3.83757,0,0,1-.64032,1.11908c-.03375.0509-.22388.04553-.31281.00421-.41607-.193-.822-.4079-1.25946-.629l.01209.25763c-.20758.14473-.35016.25165-.50079.34572-.072.045-.17566.11083-.2367.08885a2.66728,2.66728,0,0,1-.57806-.2807c-.15332-.10254-.491-.0335-.41059-.39769.005-.02259-.17865-.10187-.28131-.13019a3.26992,3.26992,0,0,1-.732-.18945,2.69268,2.69268,0,0,0-1.13983-.42914c-.23529-.01825-.455-.23688-.7381-.39691-.05945-.32648-.28449-.475-.7265-.411a.50852.50852,0,0,1-.25641-.03363c-.05-.02088-.09955-.04267-.14942-.06372H513.84381a.68493.68493,0,0,1-.36993,0h-2.11536c-.0379.03674-.07593.0733-.11615.1065C511.12067,121.99423,510.99744,122.16314,510.86719,122.17071Zm5.48889,21.783a6.13182,6.13182,0,0,0-.794-.29743c-.82446-.42682-1.815-.50561-2.51324-1.182-.21265-.206-.496-.41516-.56494-.67175a3.32723,3.32723,0,0,0-.26026-.69964.87762.87762,0,0,0-1.0263-.56623.43273.43273,0,0,1-.5401-.2384c-.15448-.2807-.32953-.55029-.47889-.83356a.4115.4115,0,0,1-.00134-.25628c.04962-.21937.12238-.43366.16962-.65345a1.22828,1.22828,0,0,1,.76654-.55835,2.48548,2.48548,0,0,0,.546-.19525,2.66966,2.66966,0,0,1,.47867-.24359,1.10961,1.10961,0,0,0,.71057-.54012,1.28583,1.28583,0,0,1,1.32892-.20483,1.16563,1.16563,0,0,1,.35437,1.10535,3.05047,3.05047,0,0,0-.17267,1.47143,1.0089,1.0089,0,0,0,.52264.77625c.2934.16607.46857.53137.71826.78686.269.27539.564.52547.8476.78656l.14313-.09314c-.23853-.76013-.70392-1.49809-.21064-2.3634.196.44751.39747.89276.58576,1.34351.09857.236.1629.48626.26221.7218a.631.631,0,0,1-.20307.869l-.00006,0q-.02188.01361-.04486.02539c-.19092.12415-.20184.23487-.07739.40717.11047.153.20074.32043.29992.48144l-.13134-.01147c-.10553.23712-.21857.47119-.3144.7121a.238.238,0,0,1-.40069.1221Zm.7182-6.91456c.01385-.01031.1839.13257.17358.15522a4.48225,4.48225,0,0,1-.29553.486c-.12372-.157-.24908-.28461-.2348-.30286a1.876,1.876,0,0,1,.35675-.33825Zm.03088.79761c.15546.05951.23.33063.33942.51032a.61766.61766,0,0,1-.60077.57116c-.28027.00043-.47406-.53161-.2558-.82055.11042-.14609.3913-.30912.51715-.2609Zm1.3031,2.62055c-.02337-.02051-.03942-.09363-.0263-.10511.31061-.27209.06677-.63531.13763-.94513l.12946-.00451q.111,1.036.22186,2.072l-.1568.03821a1.04673,1.04673,0,0,1-.13013-.34906c.00342-.25567.04895-.50921-.17572-.70636Zm-.92846.46368-.48267-.41138c.15247-.12414.225-.23321.30487-.239a.33164.33164,0,0,1,.377.38068c-.00354.09225-.12922.1799-.19916.26968Zm.06646-1.27374c.00214.25873-.09509.42206-.37487.42724a.44993.44993,0,0,1-.10584-.01.3668.3668,0,0,1-.17322-.09076.824.824,0,0,1-.18957-.60858c-.01978-.23346.08234-.34717.27746-.36792a.69357.69357,0,0,1,.0893-.0033c.32184.00778.47314.22037.47674.65329Zm6.14466,5.346a1.42163,1.42163,0,0,0-.524.2027,1.3382,1.3382,0,0,1-1.24127.21173.833.833,0,0,1-.35217-1.45282l-.37812-.16876a2.36679,2.36679,0,0,0,.13056-.55042c-.01306-.366-.23468-.47845-.53192-.272-.23.15979-.39869.08618-.44007-.13782a11.61155,11.61155,0,0,1-.19006-1.55218c-.01221-.25708.2807-.363.51038-.2218.252.1549.49224.33178.75451.46606a.65078.65078,0,0,0,.47394-.00806c-.74915-.18957-.805-.732-.79321-1.32208a2.76587,2.76587,0,0,0-.04853-.53693c-.04364-.24455-.14337-.411-.39148-.18768a6.24749,6.24749,0,0,1-.32537-.69208c-.02625-.07684.05542-.20874.11779-.29333.09546-.12946.22693-.23206.32563-.35962.2796-.36139.54944-.73041.82653-1.09387a.12979.12979,0,0,1,.10181-.0445,5.70214,5.70214,0,0,1,1.579.28278,4.32308,4.32308,0,0,0,1.721.22937c.52277.03766,1.0495.0412,1.568.109a.5527.5527,0,0,1,.50714.59217,1.10842,1.10842,0,0,1-.40271.59313,1.40859,1.40859,0,0,1-.56665.2367,4.08506,4.08506,0,0,0-1.85089,1.28249c-.42785.44342-.79034.95013-1.17926,1.43089a.63482.63482,0,0,0,.199.84137,2.71279,2.71279,0,0,1,1.1344-1.84876,2.39856,2.39856,0,0,1,.15887.59064c.00378.57945-.03931,1.1591-.04773,1.73889a7.59857,7.59857,0,0,0,.04816.80939.95791.95791,0,0,1-.89319,1.12537Zm2.15051-4.89538a1.7355,1.7355,0,0,1-.22559.52392,1.74073,1.74073,0,0,0-.50616,1.28565.651.651,0,0,1-.05945.1972l-.1156-.01453a3.20607,3.20607,0,0,1,.14368-1.64166.32221.32221,0,0,1,.14758-.173c.20032-.07263.40967-.1203.61554-.17763Zm1.71875,3.95648.42181-1.40741a3.36281,3.36281,0,0,1,.18781.5238,2.597,2.597,0,0,1-.00916.46161C528.15485,144.11328,528.04431,144.18923,527.56018,144.05435Zm3.59845-11.25812c.28918.0755.60278.052.90143.09863.22192.03467.52234.041.63879.1825a1.36506,1.36506,0,0,0,1.00843.39154,2.60981,2.60981,0,0,1,1.10589.3858,5.16378,5.16378,0,0,1,2.30725,2.50476,2.49185,2.49185,0,0,1,.1388,1.37213,8.81588,8.81588,0,0,1-1.61383,3.26166,6.14748,6.14748,0,0,1-1.21259,1.41766,2.8555,2.8555,0,0,1-1.47626.67371c-.33276.03259-.64038.34247-.95508.53442-.75354.45978-.76141.43622-.98687-.41211-.27918-1.05029-.6128-2.08624-.93109-3.12591-.1095-.35754-.43427-.31165-.68048-.26422-.28437.05481-.39484.029-.537-.26453a1.38793,1.38793,0,0,0-.70563-.62121c-.361-.1377-.37549-.37038-.38031-.73334-.1286-.50873.38525-.65869.70575-.88989.33832-.24408.70129-.39862.73883-.903.01184-.15918.24127-.315.39246-.44818a1.238,1.238,0,0,0,.4234-.86359,14.72177,14.72177,0,0,1,.3891-1.92713C530.53546,132.74414,530.74292,132.68762,531.15863,132.79623Zm-9.55579-.75629a5.89673,5.89673,0,0,1,.55573.58271.8377.8377,0,0,1,.0993.39337c.05371.43756.17261.5393.61.5011a.63148.63148,0,0,1,.69665.86377.40228.40228,0,0,1-.25763.22752c-.06182.01318-.17443-.11723-.23193-.20445-.06055-.09186-.05279-.2497-.12866-.30512-.10211-.07464-.31921-.14868-.3739-.09888a1.34876,1.34876,0,0,0-.22321.44068l.09979.04455c-.05615.13361-.084.34778-.17578.38a.50994.50994,0,0,1-.41052-.13275c-.26367-.23767-.49274-.51343-.74152-.76825a1.83352,1.83352,0,0,0-.39544-.35645.64645.64645,0,0,1-.25916-1.06883,1.03976,1.03976,0,0,0,.11957-.27759.58492.58492,0,0,1,1.01672-.2214ZM516.716,121.89419c-.61609.40338-1.04156.36993-1.08685.03882.24188-.04431.475-.10034.71124-.12415a1.3839,1.3839,0,0,1,.37561.08529Z" transform="translate(0 0)"/></svg>