<svg id="Calque_1" data-name="Calque 1" xmlns="http://www.w3.org/2000/svg" viewBox="0 0 375 375"><defs><style>.cls-1{fill:#5de65d;}.cls-2{fill:#333;stroke:#333;}</style></defs><title>scrollUpHover</title><circle class="cls-1" cx="187.5" cy="187.5" r="187.5"/><path class="cls-2" d="M135.772,153.85538V53.978h13.15259c1.99262,0,3.79123-.58529,4.55737-2.42665A4.44968,4.44968,0,0,0,152.4133,46.481L132.68439,26.90668a4.93327,4.93327,0,0,0-6.97415.07562L105.98138,46.75062a4.02108,4.02108,0,0,0-1.06863,4.781c.76613,1.84465,2.56146,2.44638,4.55408,2.44638h13.15259v99.87741a6.57629,6.57629,0,0,0,13.15258,0Z"/><path class="cls-2" d="M282.03522,185.09274a33.55507,33.55507,0,0,0-8.22693,1.54543,23.00525,23.00525,0,0,0-37.35993-16.19412c-2.91659-8.9043-10.62728-14.94461-20.17605-14.94461a21.77614,21.77614,0,0,0-15.96066,6.84921l-2.18332-61.10359c0-14.06011-9.90061-24.66108-23.03019-24.66108S152.068,87.185,152.068,101.3503l2.25568,105.30284a62.44815,62.44815,0,0,0-11.8472,8.76947c-17.85135,16.22369-23.69437,55.46444-3.53476,85.837C161.3833,335.06833,187.67859,349.5,226.87329,349.5c41.526,0,55.4184-20.84024,66.09171-42.18689,10.26559-20.53119,10.384-99.15729,10.384-102.49145C303.35226,194.30942,293.39246,185.09274,282.03522,185.09274Zm2.10769,117.80765c-10.04858,20.09714-21.29074,36.73514-57.26632,36.73514-35.95914,0-59.05179-12.69882-79.71118-43.831-12.03791-18.13742-17.26276-55.62225,1.94985-73.0856a70.53766,70.53766,0,0,1,5.45832-4.508l.73654,34.39068a4.93334,4.93334,0,1,0,9.86444-.21042L161.939,101.24506c0-8.7103,5.41229-14.79665,13.16574-14.79665s13.16574,6.08636,13.169,14.97423l3.28815,92.06805a4.932,4.932,0,0,0,9.79211.64447l2.4957-14.79664a4.92657,4.92657,0,0,0,.06906-.822c0-7.497,5.31363-13.15257,12.36014-13.15257,7.94745,0,11.56769,6.81633,11.56769,13.15257V188.381a4.93222,4.93222,0,0,0,9.86444,0h0a13.15258,13.15258,0,0,1,26.30514,0v21.37293a4.93223,4.93223,0,0,0,9.86445,0V197.19312a23.63336,23.63336,0,0,1,8.16119-2.23594c5.8858,0,11.44934,4.79082,11.44934,9.86444C293.48782,226.90479,291.80432,287.57764,284.14291,302.90039Z"/></svg>