<svg id="Calque_1" data-name="Calque 1" xmlns="http://www.w3.org/2000/svg" viewBox="0 0 375 375"><defs><style>.cls-1{fill:#5de65d;}.cls-2{fill:#fff;stroke:#fff;}</style></defs><title>scrollUp</title><circle class="cls-1" cx="187.5" cy="187.5" r="187.5"/><path class="cls-2" d="M275.772,206.35537V106.478h13.15258c1.99261,0,3.79123-.58529,4.55737-2.42665a4.4497,4.4497,0,0,0-1.06865-5.07032L272.6844,79.40668a4.93328,4.93328,0,0,0-6.97415.07562L245.98138,99.25062a4.02105,4.02105,0,0,0-1.06864,4.781c.76613,1.84465,2.56146,2.44638,4.55407,2.44638h13.15258v99.8774a6.57629,6.57629,0,0,0,13.15258,0Z" transform="translate(-140 -52.5)"/><path class="cls-2" d="M422.03523,237.59274a33.55453,33.55453,0,0,0-8.22694,1.54543,23.00524,23.00524,0,0,0-37.35992-16.19412c-2.91659-8.9043-10.62729-14.94461-20.17606-14.94461a21.77619,21.77619,0,0,0-15.96066,6.84921l-2.18333-61.1036c0-14.06011-9.90061-24.66108-23.03017-24.66108s-23.03017,10.601-23.03017,24.76631l2.25567,105.30285a62.44754,62.44754,0,0,0-11.84719,8.76948c-17.85134,16.2237-23.69437,55.46444-3.53476,85.837C301.38329,387.56833,327.67858,402,366.87328,402c41.526,0,55.41841-20.84025,66.09171-42.1869,10.26559-20.53119,10.384-99.15729,10.384-102.49147C443.35225,246.80942,433.39246,237.59274,422.03523,237.59274Zm2.10769,117.80766c-10.04857,20.09714-21.29073,36.73514-57.26633,36.73514-35.95915,0-59.05178-12.69881-79.7112-43.831-12.0379-18.13741-17.26276-55.62226,1.94986-73.08559a70.53478,70.53478,0,0,1,5.45832-4.508l.73654,34.3907a4.93334,4.93334,0,1,0,9.86444-.21042L301.939,153.74506c0-8.71029,5.41229-14.79665,13.16574-14.79665s13.16573,6.08636,13.169,14.97422l3.28814,92.06805a4.932,4.932,0,0,0,9.7921.64447l2.49571-14.79665a4.92353,4.92353,0,0,0,.06907-.822c0-7.497,5.31363-13.15257,12.36014-13.15257,7.94745,0,11.56769,6.81633,11.56769,13.15257v9.86444a4.93222,4.93222,0,1,0,9.86443,0,13.15258,13.15258,0,0,1,26.30516,0v21.37293a4.93222,4.93222,0,0,0,9.86443,0V249.69311a23.63331,23.63331,0,0,1,8.16118-2.23593c5.88579,0,11.44933,4.79082,11.44933,9.86443C433.48781,279.4048,431.80431,340.07763,424.14292,355.4004Z" transform="translate(-140 -52.5)"/></svg>